<?xml version="1.0" encoding="UTF-8" standalone="no"?>
<!-- Created with Inkscape (http://www.inkscape.org/) -->

<svg
   version="1.1"
   id="svg27004"
   width="3748"
   height="1440"
   viewBox="0 0 3748 1440"
   xmlns="http://www.w3.org/2000/svg"
   xmlns:svg="http://www.w3.org/2000/svg">
  <defs
     id="defs27008" />
  <g
     id="g27010">
    <path
       style="fill:none;stroke:#727272"
       d="m 1721.6,413.028 c 2.62,-2.074 8.28,-1.028 11.4,-1.028 h 29 c 3.33,0 9.82,-1.108 11.97,1.603 2.21,2.786 1.03,7.69 1.03,11.397 v 31 c 0,8.293 0.06,16.721 0,25 -0.02,2.758 0.23,6.123 -2.32,7.821 -3.19,2.127 -7.87,1.179 -11.68,1.179 h -29 c -4.25,0 -9.5,1.19 -11.4,-3.148 -1.36,-3.126 -0.6,-8.404 -0.6,-11.852 v -28 -25 c 0,-2.617 -0.75,-7.109 1.6,-8.972"
       id="path27572" />
  </g>
</svg>
