<?xml version="1.0" encoding="UTF-8" standalone="no"?>
<!-- Created with Inkscape (http://www.inkscape.org/) -->

<svg
   version="1.1"
   id="svg297"
   width="3748"
   height="1440"
   viewBox="0 0 3748 1440"
   sodipodi:docname="1.svg"
   xml:space="preserve"
   inkscape:export-filename="4.svg"
   inkscape:export-xdpi="96"
   inkscape:export-ydpi="96"
   xmlns:inkscape="http://www.inkscape.org/namespaces/inkscape"
   xmlns:sodipodi="http://sodipodi.sourceforge.net/DTD/sodipodi-0.dtd"
   xmlns="http://www.w3.org/2000/svg"
   xmlns:svg="http://www.w3.org/2000/svg"><sodipodi:namedview
     id="namedview6"
     pagecolor="#ffffff"
     bordercolor="#000000"
     borderopacity="0.25"
     inkscape:showpageshadow="2"
     inkscape:pageopacity="0.0"
     inkscape:pagecheckerboard="0"
     inkscape:deskcolor="#d1d1d1"
     showgrid="false" /><defs
     id="defs301" /><path
     style="fill:#000000"
     d="m 1447.5951,450.15283 v -39.5 h 28 28 v 39.5 39.5 h -28 -28 z m 54,0.4834 v -38.01661 l -26.25,0.26661 -26.25,0.2666 -0.2627,36.49563 c -0.1445,20.07259 -0.046,37.06009 0.2186,37.75 0.3689,0.96138 6.5617,1.25437 26.5127,1.25437 h 26.0314 z"
     id="path498" /><path
     style="fill:#000000"
     d="m 1522.7909,452.42526 v -39.5 h 28 28 v 39.5 39.5 h -28 -28 z m 54,0.4834 v -38.01661 l -26.25,0.26661 -26.25,0.2666 -0.2627,36.49563 c -0.1445,20.07259 -0.046,37.06009 0.2186,37.75 0.3689,0.96138 6.5617,1.25437 26.5127,1.25437 h 26.0314 z"
     id="path498-1" /><path
     style="fill:#000000"
     d="m 1660.4998,451.77605 v -39.5 h 28 28 v 39.5 39.5 h -28 -28 z m 54,0.4834 v -38.01661 l -26.25,0.26661 -26.25,0.2666 -0.2627,36.49563 c -0.1445,20.07259 -0.046,37.06009 0.2186,37.75 0.3689,0.96138 6.5617,1.25437 26.5127,1.25437 h 26.0314 z"
     id="path498-1-8" /><path
     style="fill:#000000"
     d="m 1723.3571,450.21457 v -39.5 h 28 28 v 39.5 39.5 h -28 -28 z m 54,0.4834 v -38.01661 l -26.25,0.26661 -26.25,0.2666 -0.2627,36.49563 c -0.1445,20.07259 -0.046,37.06009 0.2186,37.75 0.3689,0.96138 6.5617,1.25437 26.5127,1.25437 h 26.0314 z"
     id="path498-1-8-7" /><path
     style="fill:#000000"
     d="m 1781.7787,451.11538 v -39.5 h 28 28 v 39.5 39.5 h -28 -28 z m 54,0.4834 v -38.01661 l -26.25,0.26661 -26.25,0.2666 -0.2627,36.49563 c -0.1445,20.07259 -0.046,37.06009 0.2186,37.75 0.3689,0.96138 6.5617,1.25437 26.5127,1.25437 h 26.0314 z"
     id="path498-1-8-7-9" /><path
     style="fill:#000000"
     d="m 1840.7983,452.28995 v -39.5 h 28 28 v 39.5 39.5 h -28 -28 z m 54,0.4834 v -38.01661 l -26.25,0.26661 -26.25,0.2666 -0.2627,36.49563 c -0.1445,20.07259 -0.046,37.06009 0.2186,37.75 0.3689,0.96138 6.5617,1.25437 26.5127,1.25437 h 26.0314 z"
     id="path498-1-8-7-9-2" /><path
     style="fill:#000000"
     d="m 1901.6961,448.82081 v -39.5 h 28 28 v 39.5 39.5 h -28 -28 z m 54,0.4834 V 411.2876 l -26.25,0.26661 -26.25,0.2666 -0.2627,36.49563 c -0.1445,20.07259 -0.046,37.06009 0.2186,37.75 0.3689,0.96138 6.5617,1.25437 26.5127,1.25437 h 26.0314 z"
     id="path498-1-8-7-9-2-0" /><path
     style="fill:#000000"
     d="m 1959.8465,449.6303 v -39.5 h 28 28 v 39.5 39.5 h -28 -28 z m 54,0.4834 v -38.01661 l -26.25,0.26661 -26.25,0.2666 -0.2627,36.49563 c -0.1445,20.07259 -0.046,37.06009 0.2186,37.75 0.3689,0.96138 6.5617,1.25437 26.5127,1.25437 h 26.0314 z"
     id="path498-1-8-7-9-2-0-2" /><path
     style="fill:#000000"
     d="m 2079.2941,455.10778 v -39.5 h 28 28 v 39.5 39.5 h -28 -28 z m 54,0.4834 v -38.01661 l -26.25,0.26661 -26.25,0.2666 -0.2627,36.49563 c -0.1445,20.07259 -0.046,37.06009 0.2186,37.75 0.3689,0.96138 6.5617,1.25437 26.5127,1.25437 h 26.0314 z"
     id="path498-1-8-7-9-2-0-2-3" /></svg>
