<?xml version="1.0" encoding="UTF-8" standalone="no"?>
<!-- Created with Inkscape (http://www.inkscape.org/) -->

<svg
   width="991.65833mm"
   height="381mm"
   viewBox="0 0 991.65833 381"
   version="1.1"
   id="svg5"
   xml:space="preserve"
   xmlns="http://www.w3.org/2000/svg"
   xmlns:svg="http://www.w3.org/2000/svg"><defs
     id="defs2" /><g
     id="layer1"
     transform="translate(445.57301,144.43184)"><g
       id="g7623"><path
         style="fill:none;stroke:#030303;stroke-width:0.7;stroke-linecap:round;stroke-linejoin:round;stroke-dasharray:none;stroke-opacity:0.608434"
         id="rect6107"
         width="14.508357"
         height="20.44302"
         x="-59.324303"
         y="-73.073143"
         class="UnoptimicedTransforms"
         d="m -59.324303,-73.073143 h 14.508357 v 20.44302 h -14.508357 z m 16.095857,0 h 14.508357 v 20.44302 h -14.508357 z m 16.095857,0 h 14.508357 v 20.44302 h -14.508357 z m 16.095857,0 H 3.4716255 v 20.44302 H -11.036732 Z m 16.0958575,0 H 19.567483 v 20.44302 H 5.0591255 Z m 16.0958575,0 H 35.66334 v 20.44302 H 21.154983 Z m 16.095857,0 h 14.508357 v 20.44302 H 37.25084 Z m 16.095857,0 h 14.508357 v 20.44302 H 53.346697 Z m 16.095857,0 h 14.508357 v 20.44302 H 69.442554 Z" /><path
         style="fill:none;stroke:#030303;stroke-width:0.7;stroke-linecap:round;stroke-linejoin:round;stroke-dasharray:none;stroke-opacity:0.608434"
         id="rect6107-6"
         width="14.508357"
         height="20.44302"
         x="-59.324303"
         y="-73.073143"
         class="UnoptimicedTransforms"
         d="m -59.324303,-73.073143 h 14.508357 v 20.44302 h -14.508357 z m 19.270857,0 h 14.508357 v 20.44302 h -14.508357 z"
         transform="translate(-2.6893998,37.172193)" /><path
         style="fill:none;stroke:#030303;stroke-width:0.7;stroke-linecap:round;stroke-linejoin:round;stroke-dasharray:none;stroke-opacity:0.608434"
         id="rect6107-6-9"
         width="14.508357"
         height="20.44302"
         x="-59.324303"
         y="-73.073143"
         class="UnoptimicedTransforms"
         d="m -59.324303,-73.073143 h 14.508357 v 20.44302 h -14.508357 z m 16.095857,0 h 14.508357 v 20.44302 h -14.508357 z m 16.095857,0 h 14.508357 v 20.44302 h -14.508357 z m 16.095857,0 H 3.4716255 v 20.44302 H -11.036732 Z m 16.0958575,0 H 19.567483 v 20.44302 H 5.0591255 Z m 16.0958575,0 H 35.66334 v 20.44302 H 21.154983 Z"
         transform="translate(52.837813,37.517574)" /><path
         style="fill:none;stroke:#030303;stroke-width:0.7;stroke-linecap:round;stroke-linejoin:round;stroke-dasharray:none;stroke-opacity:0.608434"
         id="rect6107-6-9-2"
         width="14.508357"
         height="20.44302"
         x="-59.324303"
         y="-73.073143"
         class="UnoptimicedTransforms"
         d="m -59.324303,-73.073143 h 14.508357 v 20.44302 h -14.508357 z m 15.831274,0 h 14.508357 v 20.44302 h -14.508357 z m 15.831274,0 h 14.508357 v 20.44302 h -14.508357 z m 15.831273,0 H 2.6778755 v 20.44302 H -11.830482 Z m 15.8312742,0 H 18.509149 v 20.44302 H 4.0007922 Z m 15.8312738,0 h 14.508357 v 20.44302 H 19.832066 Z m 15.831274,0 h 14.508357 v 20.44302 H 35.66334 Z m 15.831273,0 H 66.00297 v 20.44302 H 51.494613 Z m 15.831274,0 h 14.508357 v 20.44302 H 67.325887 Z m 15.831274,0 h 14.508357 v 20.44302 H 83.157161 Z m 15.831273,0 h 14.508356 v 20.44302 H 98.988434 Z m 15.831276,0 h 14.50836 v 20.44302 h -14.50836 z m 15.83127,0 h 14.50836 v 20.44302 h -14.50836 z m 15.83128,0 h 14.50835 v 20.44302 h -14.50835 z m 15.83127,0 h 14.50836 v 20.44302 h -14.50836 z m 15.83127,0 h 14.50836 v 20.44302 H 178.1448 Z m 15.83128,0 h 14.50835 v 20.44302 h -14.50835 z m 15.83127,0 h 14.50836 v 20.44302 h -14.50836 z m 15.83127,0 h 14.50836 v 20.44302 h -14.50836 z m 15.83128,0 h 14.50835 v 20.44302 H 241.4699 Z m 15.83127,0 h 14.50836 v 20.44302 h -14.50836 z m 15.83128,0 h 14.50835 v 20.44302 h -14.50835 z"
         transform="matrix(1.0042799,0,0,0.94402628,165.86173,34.580113)" /><path
         style="fill:none;stroke:#030303;stroke-width:0.7;stroke-linecap:round;stroke-linejoin:round;stroke-dasharray:none;stroke-opacity:0.608434"
         id="rect6107-6-9-2-3"
         width="14.508357"
         height="20.44302"
         x="-59.324303"
         y="-73.073143"
         class="UnoptimicedTransforms"
         d="m -59.324303,-73.073143 h 14.508357 v 20.44302 h -14.508357 z m 15.831274,0 h 14.508357 v 20.44302 h -14.508357 z m 15.831274,0 h 14.508357 v 20.44302 h -14.508357 z m 15.831273,0 H 2.6778755 v 20.44302 H -11.830482 Z m 15.8312742,0 H 18.509149 v 20.44302 H 4.0007922 Z"
         transform="matrix(0,1.0042799,-0.94402628,0,438.6484,7.4213762)" /><path
         style="fill:none;stroke:#030303;stroke-width:0.7;stroke-linecap:round;stroke-linejoin:round;stroke-dasharray:none;stroke-opacity:0.608434"
         id="rect6107-6-9-2-3-0"
         width="14.508357"
         height="20.44302"
         x="-59.324303"
         y="-73.073143"
         class="UnoptimicedTransforms"
         d="m -59.324303,-73.073143 h 14.508357 v 20.44302 h -14.508357 z m 15.831274,0 h 14.508357 v 20.44302 h -14.508357 z m 15.831274,0 h 14.508357 v 20.44302 h -14.508357 z"
         transform="matrix(0,1.0042799,-0.94402628,0,407.16064,45.404437)" /><path
         style="fill:none;stroke:#030303;stroke-width:0.7;stroke-linecap:round;stroke-linejoin:round;stroke-dasharray:none;stroke-opacity:0.608434"
         id="rect6107-6-9-2-3-0-2"
         width="14.508357"
         height="20.44302"
         x="-59.324303"
         y="-73.073143"
         class="UnoptimicedTransforms"
         d="m -59.324303,-73.073143 h 14.508357 v 20.44302 h -14.508357 z"
         transform="matrix(1.0042799,0,0,0.94402628,534.4146,111.04604)" /><path
         style="fill:none;stroke:#030303;stroke-width:0.7;stroke-linecap:round;stroke-linejoin:round;stroke-dasharray:none;stroke-opacity:0.608434"
         id="rect6107-6-9-2-0"
         width="14.508357"
         height="20.44302"
         x="-59.324303"
         y="-73.073143"
         class="UnoptimicedTransforms"
         d="m -59.324303,-73.073143 h 14.508357 v 20.44302 h -14.508357 z m 15.831274,0 h 14.508357 v 20.44302 h -14.508357 z m 15.831274,0 h 14.508357 v 20.44302 h -14.508357 z m 15.831273,0 H 2.6778755 v 20.44302 H -11.830482 Z m 15.8312742,0 H 18.509149 v 20.44302 H 4.0007922 Z m 15.8312738,0 h 14.508357 v 20.44302 H 19.832066 Z m 15.831274,0 h 14.508357 v 20.44302 H 35.66334 Z m 15.831273,0 H 66.00297 v 20.44302 H 51.494613 Z m 15.831274,0 h 14.508357 v 20.44302 H 67.325887 Z m 15.831274,0 h 14.508357 v 20.44302 H 83.157161 Z m 15.831273,0 h 14.508356 v 20.44302 H 98.988434 Z m 15.831276,0 h 14.50836 v 20.44302 h -14.50836 z m 15.83127,0 h 14.50836 v 20.44302 h -14.50836 z m 15.83128,0 h 14.50835 v 20.44302 h -14.50835 z m 15.83127,0 h 14.50836 v 20.44302 h -14.50836 z m 15.83127,0 h 14.50836 v 20.44302 H 178.1448 Z m 15.83128,0 h 14.50835 v 20.44302 h -14.50835 z m 15.83127,0 h 14.50836 v 20.44302 h -14.50836 z m 15.83127,0 h 14.50836 v 20.44302 h -14.50836 z m 15.83128,0 h 14.50835 v 20.44302 H 241.4699 Z m 15.83127,0 h 14.50836 v 20.44302 h -14.50836 z m 15.83128,0 h 14.50835 v 20.44302 h -14.50835 z m 15.83127,0 h 14.50836 v 20.44302 h -14.50836 z"
         transform="matrix(1.0042799,0,0,0.94402628,165.44637,-3.5048926)" /></g></g></svg>
